<svg width="25" height="24" viewBox="0 0 25 24" fill="none" xmlns="http://www.w3.org/2000/svg">
<g clip-path="url(#clip0_2563_8)">
<path fill-rule="evenodd" clip-rule="evenodd" d="M12.8089 0.161023C12.6558 -0.0536743 12.3411 -0.0536743 12.1879 0.161023L10.7921 2.09331C10.6745 2.24667 10.4518 2.29258 10.281 2.18523L8.25421 0.94315C8.032 0.80513 7.74124 0.927664 7.68066 1.17303L7.12813 3.48871C7.08166 3.68807 6.89272 3.81085 6.6949 3.78018L4.3458 3.41215C4.08817 3.36614 3.86565 3.59622 3.90675 3.84159L4.28186 6.20313C4.31345 6.40249 4.18724 6.58656 3.99217 6.63257L1.6785 7.18462C1.42469 7.24597 1.30431 7.53733 1.44095 7.75203L2.68635 9.77642C2.79124 9.96045 2.74692 10.1751 2.58467 10.2978L0.658378 11.6934C0.447207 11.8467 0.447207 12.1533 0.658378 12.3066L2.58467 13.7022C2.74692 13.8249 2.79124 14.0549 2.68635 14.2236L1.44095 16.248C1.30431 16.4627 1.42469 16.754 1.6785 16.8154L3.99217 17.3674C4.18724 17.4134 4.31345 17.6128 4.28186 17.7969L3.90675 20.1584C3.86565 20.4038 4.08817 20.6339 4.3458 20.5879L6.6949 20.2198C6.89272 20.1891 7.08166 20.3119 7.12813 20.5113L7.68066 22.827C7.74124 23.0723 8.032 23.1949 8.25421 23.0568L10.281 21.8148C10.4518 21.7074 10.6745 21.7533 10.7921 21.922L12.1879 23.839C12.3411 24.0537 12.6558 24.0537 12.8089 23.839L14.2047 21.922C14.3223 21.7533 14.5452 21.7074 14.7158 21.8148L16.7426 23.0568C16.9648 23.1949 17.2557 23.0723 17.3163 22.827L17.8687 20.5113C17.9153 20.3119 18.1041 20.1891 18.302 20.2198L20.6511 20.5879C20.9086 20.6339 21.1313 20.4038 21.09 20.1584L20.7151 17.7969C20.6835 17.6128 20.8097 17.4134 21.0046 17.3674L23.3184 16.8154C23.5721 16.754 23.6926 16.4627 23.556 16.248L22.3106 14.2236C22.2057 14.0549 22.25 13.8249 22.4123 13.7022L24.3384 12.3066C24.5497 12.1533 24.5497 11.8467 24.3384 11.6934L22.4123 10.2978C22.25 10.1751 22.2057 9.96045 22.3106 9.77642L23.556 7.75203C23.6926 7.53733 23.5721 7.24597 23.3184 7.18462L21.0046 6.63257C20.8097 6.58656 20.6835 6.40249 20.7151 6.20313L21.09 3.84159C21.1313 3.59622 20.9086 3.36614 20.6511 3.41215L18.302 3.78018C18.1041 3.81085 17.9153 3.68807 17.8687 3.48871L17.3163 1.17303C17.2557 0.927664 16.9648 0.80513 16.7426 0.94315L14.7158 2.18523C14.5452 2.29258 14.3223 2.24667 14.2047 2.09331L12.8089 0.161023ZM12.4985 3.56546C7.84015 3.56546 4.06394 7.338 4.06394 12C4.06394 16.662 7.84015 20.4345 12.4985 20.4345C17.1566 20.4345 20.933 16.662 20.933 12C20.933 7.338 17.1566 3.56546 12.4985 3.56546Z" fill="currentColor"/>
</g>
<path fill-rule="evenodd" clip-rule="evenodd" d="M12.5015 19.0023C12.5015 19.0023 12.5015 15.8719 12.5015 12.0014V5.0005C16.368 5.0005 19.5024 8.1309 19.5024 12.0014C19.5024 15.8719 16.368 19.0023 12.5015 19.0023ZM12.5015 20.0024C8.08262 20.0024 4.50046 16.422 4.50046 12.0014C4.50046 7.58083 8.08262 4.00037 12.5015 4.00037C16.9204 4.00037 20.5025 7.58083 20.5025 12.0014C20.5025 16.422 16.9204 20.0024 12.5015 20.0024Z" fill="currentColor"/>
<defs>
<clipPath id="clip0_2563_8">
<rect width="12" height="24" fill="white" transform="translate(0.5)"/>
</clipPath>
</defs>
</svg>
