<svg width="14" height="10" viewBox="0 0 14 10" fill="none" xmlns="http://www.w3.org/2000/svg">
<path fill-rule="evenodd" clip-rule="evenodd" d="M5.96701 0.548948C6.14001 0.632948 6.25 0.807952 6.25 0.999952V8.99995C6.25 9.19195 6.14001 9.36696 5.96701 9.45096C5.79301 9.53396 5.58799 9.51095 5.43799 9.38995L3.07501 7.49995H0.75C0.474 7.49995 0.25 7.27595 0.25 6.99995V2.99995C0.25 2.72395 0.474 2.49995 0.75 2.49995H3.07501L5.43799 0.609952C5.58799 0.489952 5.79301 0.465948 5.96701 0.548948Z" fill="currentColor"/>
<path fill-rule="evenodd" clip-rule="evenodd" d="M13.104 2.64601C13.299 2.84201 13.299 3.15801 13.104 3.35401L9.10401 7.35401C8.90801 7.54901 8.59201 7.54901 8.39601 7.35401C8.20101 7.15801 8.20101 6.84201 8.39601 6.64601L12.396 2.64601C12.592 2.45101 12.908 2.45101 13.104 2.64601Z" fill="currentColor"/>
<path fill-rule="evenodd" clip-rule="evenodd" d="M8.39601 2.64601C8.20101 2.84201 8.20101 3.15801 8.39601 3.35401L12.396 7.35401C12.592 7.54901 12.908 7.54901 13.104 7.35401C13.299 7.15801 13.299 6.84201 13.104 6.64601L9.10401 2.64601C8.90801 2.45101 8.59201 2.45101 8.39601 2.64601Z" fill="currentColor"/>
</svg>
