<svg width="14" height="12" viewBox="0 0 14 12" fill="none" xmlns="http://www.w3.org/2000/svg">
<path d="M10.7861 12.01C12.3241 10.472 13.2751 8.34698 13.2751 5.99998C13.2751 3.65298 12.3241 1.52799 10.7861 -0.0100098L10.0781 0.696991C11.4361 2.05399 12.2751 3.92898 12.2751 5.99998C12.2751 8.07098 11.4361 9.94598 10.0781 11.303L10.7861 12.01Z" fill="currentColor"/>
<path d="M9.37106 10.596C10.5481 9.42004 11.2751 7.79505 11.2751 6.00005C11.2751 4.20505 10.5481 2.58005 9.37106 1.40405L8.66406 2.11104C9.66006 3.10604 10.2751 4.48105 10.2751 6.00005C10.2751 7.51905 9.66006 8.89405 8.66406 9.88905L9.37106 10.596Z" fill="currentColor"/>
<path d="M7.957 9.18201C8.771 8.36801 9.27499 7.243 9.27499 6C9.27499 4.757 8.771 3.63199 7.957 2.81799L7.25 3.52499C7.883 4.15899 8.27499 5.034 8.27499 6C8.27499 6.967 7.883 7.84201 7.25 8.47501L7.957 9.18201Z" fill="currentColor"/>
<path fill-rule="evenodd" clip-rule="evenodd" d="M5.96701 1.54895C6.14001 1.63295 6.25 1.80795 6.25 1.99995V9.99995C6.25 10.192 6.14001 10.367 5.96701 10.451C5.79301 10.534 5.58799 10.511 5.43799 10.39L3.07501 8.49995H0.75C0.474 8.49995 0.25 8.27595 0.25 7.99995V3.99995C0.25 3.72395 0.474 3.49995 0.75 3.49995H3.07501L5.43799 1.60995C5.58799 1.48995 5.79301 1.46595 5.96701 1.54895Z" fill="currentColor"/>
</svg>
