<svg width="14" height="13" viewBox="0 0 14 13" fill="none" xmlns="http://www.w3.org/2000/svg">
<path fill-rule="evenodd" clip-rule="evenodd" d="M13.22 13L0 0.724276L0.779989 0L14 12.2757L13.22 13Z" fill="currentColor"/>
<path fill-rule="evenodd" clip-rule="evenodd" d="M7 0C7.29723 0 7.53846 0.242667 7.53846 0.541667V12.4583C7.53846 12.7573 7.29723 13 7 13C6.70277 13 6.46154 12.7573 6.46154 12.4583V0.541667C6.46154 0.242667 6.70277 0 7 0ZM4.84615 2.16667C5.14338 2.16667 5.38462 2.40933 5.38462 2.70833V10.2917C5.38462 10.5907 5.14338 10.8333 4.84615 10.8333C4.54892 10.8333 4.30769 10.5907 4.30769 10.2917V2.70833C4.30769 2.40933 4.54892 2.16667 4.84615 2.16667ZM9.15385 2.16667C9.45108 2.16667 9.69231 2.40933 9.69231 2.70833V10.2917C9.69231 10.5907 9.45108 10.8333 9.15385 10.8333C8.85662 10.8333 8.61539 10.5907 8.61539 10.2917V2.70833C8.61539 2.40933 8.85662 2.16667 9.15385 2.16667ZM2.69231 3.79167C2.98954 3.79167 3.23077 4.03433 3.23077 4.33333V8.66667C3.23077 8.96567 2.98954 9.20833 2.69231 9.20833C2.39508 9.20833 2.15385 8.96567 2.15385 8.66667V4.33333C2.15385 4.03433 2.39508 3.79167 2.69231 3.79167ZM11.3077 3.79167C11.6049 3.79167 11.8462 4.03433 11.8462 4.33333V8.66667C11.8462 8.96567 11.6049 9.20833 11.3077 9.20833C11.0105 9.20833 10.7692 8.96567 10.7692 8.66667V4.33333C10.7692 4.03433 11.0105 3.79167 11.3077 3.79167ZM0.538462 4.875C0.835692 4.875 1.07692 5.11767 1.07692 5.41667V7.58333C1.07692 7.88233 0.835692 8.125 0.538462 8.125C0.241231 8.125 0 7.88233 0 7.58333V5.41667C0 5.11767 0.241231 4.875 0.538462 4.875ZM13.4615 4.875C13.7588 4.875 14 5.11767 14 5.41667V7.58333C14 7.88233 13.7588 8.125 13.4615 8.125C13.1643 8.125 12.9231 7.88233 12.9231 7.58333V5.41667C12.9231 5.11767 13.1643 4.875 13.4615 4.875Z" fill="currentColor"/>
</svg>
