<svg width="14" height="12" viewBox="0 0 14 12" fill="none" xmlns="http://www.w3.org/2000/svg">
<path fill-rule="evenodd" clip-rule="evenodd" d="M6.75 0C7.026 0 7.25 0.224 7.25 0.5V11.5C7.25 11.776 7.026 12 6.75 12C6.474 12 6.25 11.776 6.25 11.5V0.5C6.25 0.224 6.474 0 6.75 0ZM4.75 2C5.026 2 5.25 2.224 5.25 2.5V9.5C5.25 9.776 5.026 10 4.75 10C4.474 10 4.25 9.776 4.25 9.5V2.5C4.25 2.224 4.474 2 4.75 2ZM8.75 2C9.026 2 9.25 2.224 9.25 2.5V9.5C9.25 9.776 9.026 10 8.75 10C8.474 10 8.25 9.776 8.25 9.5V2.5C8.25 2.224 8.474 2 8.75 2ZM2.75 3.5C3.026 3.5 3.25 3.724 3.25 4V8C3.25 8.276 3.026 8.5 2.75 8.5C2.474 8.5 2.25 8.276 2.25 8V4C2.25 3.724 2.474 3.5 2.75 3.5ZM10.75 3.5C11.026 3.5 11.25 3.724 11.25 4V8C11.25 8.276 11.026 8.5 10.75 8.5C10.474 8.5 10.25 8.276 10.25 8V4C10.25 3.724 10.474 3.5 10.75 3.5ZM0.75 4.5C1.026 4.5 1.25 4.724 1.25 5V7C1.25 7.276 1.026 7.5 0.75 7.5C0.474 7.5 0.25 7.276 0.25 7V5C0.25 4.724 0.474 4.5 0.75 4.5ZM12.75 4.5C13.026 4.5 13.25 4.724 13.25 5V7C13.25 7.276 13.026 7.5 12.75 7.5C12.474 7.5 12.25 7.276 12.25 7V5C12.25 4.724 12.474 4.5 12.75 4.5Z" fill="currentColor"/>
</svg>
